<svg xmlns="http://www.w3.org/2000/svg" xml:space="preserve" width="20mm" height="20mm" version="1.1" style="shape-rendering:geometricPrecision; text-rendering:geometricPrecision; image-rendering:optimizeQuality; fill-rule:evenodd; clip-rule:evenodd"
viewBox="0 0 2103 2147"
 xmlns:xlink="http://www.w3.org/1999/xlink">
 <g id="Layer_x0020_1">
  <metadata id="CorelCorpID_0Corel-Layer"/>
  <path fill="#4a5568" class="fil0" d="M1959 2032l-257 70 -70 -268 -92 94 -126 34 182 185 0 0 -36 0 0 0 -174 -178 -174 48 -34 130 0 0 -27 0 0 0 32 -122 -119 33 0 90 -25 0 0 -93 -108 -29 32 122 0 0 -27 0 0 0 -34 -130 -174 -48 -174 178 0 0 -36 0 0 0 182 -185 -126 -34 -92 -94 -70 268 -257 -70 30 116 0 0 -27 0 0 0 -32 -124 -6 -2 -121 121 0 -35 93 -93 -93 -25 0 -27 115 31 3 -3 -68 -258 263 -72 -92 -94 -34 -128 -187 191 0 -37 179 -183 -47 -178 -133 -36 0 -27 125 34 -30 -115 -95 0 0 -25 94 0 31 -117 -125 34 0 -27 133 -36 47 -178 -179 -183 0 -37 187 191 34 -128 92 -94 -263 -72 67 -256 -4 -4 -113 31 0 -27 92 -25 -92 -92 0 -35 120 120 7 -2 32 -122 27 0 -30 114 257 -70 70 268 92 -94 126 -34 -180 -184 36 0 172 176 174 -48 34 -128 27 0 -32 120 108 -29 0 -91 25 0 0 88 119 33 -32 -120 27 0 34 128 174 48 172 -176 37 0 -180 184 126 34 92 94 70 -268 257 70 -30 -114 27 0 32 120 116 -116 0 35 -89 89 89 24 0 27 -107 -29 69 262 -263 72 92 94 34 128 176 -179 0 37 -168 172 47 178 121 33 0 27 -114 -31 31 117 83 0 0 25 -83 0 -30 115 114 -31 0 27 -121 33 -47 178 168 172 0 37 -176 -179 -34 128 -92 94 263 72 -69 262 107 -29 0 27 -91 25 91 91 0 35 -116 -116 -32 120 0 0 -27 0 0 0 30 -116zm5 -1889l-252 252 -60 -61 68 -258 244 67zm-270 270l-84 84 35 -134 49 50zm-140 140l-183 183 -33 -124 216 -59zm-204 204l-286 286 0 -488 102 104 148 -41 36 138zm-329 329l-283 283 -125 -34 40 -151 -95 -97 464 0zm-304 304l-161 161 50 -191 111 30zm-197 197l-22 22 -157 43 -98 -100 -36 -136 127 -130 246 67 -61 234zm-60 60l-63 63 -35 -36 98 -27zm-81 81l-240 240 -57 -218 252 -69 46 47zm-233 268l251 -251 64 66 -68 258 -246 -67 -1 -5zm269 -269l92 -92 -39 147 -54 -55zm131 -131l195 -195 35 132 -229 63zm216 -216l277 -277 0 475 -90 -92 -148 41 -38 -146zm319 -319l287 -287 133 36 -40 151 97 99 -477 0zm308 -308l172 -172 -54 204 -118 -32zm208 -208l5 -5 170 -46 98 100 36 136 -127 130 -246 -67 65 -247zm43 -43l71 -71 40 41 -111 30zm90 -90l243 -243 59 226 -252 69 -50 -51zm-1585 -262l250 250 65 -67 -68 -258 -246 67 -2 7zm269 269l92 92 1 0 -39 -148 -54 56zm130 130l197 197 35 -133 -231 -63zm218 218l277 277 0 -476 -90 92 -148 -41 -39 147zm320 320l286 286 134 -37 -40 -151 95 -97 -476 0zm307 307l174 174 -54 -207 -120 33zm210 210l2 2 172 47 98 -100 36 -136 -127 -130 -246 67 65 249zm40 40l73 73 41 -42 -114 -31zm91 91l244 244 60 -227 -252 -69 -51 52zm234 269l-251 -251 -59 60 68 258 242 -66zm-270 -270l-83 -83 35 132 48 -49zm-142 -142l-181 -181 -32 123 214 58zm-202 -202l-286 -286 0 486 102 -104 148 40 36 -137zm-328 -328l-284 -284 -124 34 40 151 -97 99 466 0zm-306 -306l-159 -159 50 189 109 -30zm-195 -195l-25 -25 -154 -42 -98 100 -36 136 127 130 246 -67 -61 -232zm-62 -62l-61 -61 -34 35 96 26zm-80 -80l-240 -240 -57 217 252 69 45 -46zm-257 643l375 0 -169 -172 -174 48 -33 125zm1497 0l375 0 -33 -125 -174 -48 -169 172zm375 25l-373 0 167 171 174 -48 32 -123zm-1498 0l-373 0 32 123 174 48 167 -171zm569 -971l0 389 173 -177 -47 -178 -127 -35zm0 1526l0 389 127 -35 47 -178 -173 -177zm-25 386l0 -375 -162 165 47 178 115 32zm0 -1535l0 -375 -115 32 -47 178 162 165zm0 1123l-98 -100 -134 37 62 237 170 -173zm-191 195l-66 -251 -246 67 -47 178 98 100 133 37 127 -130zm-99 138l145 40 -39 -148 -106 109zm326 -333l170 173 62 -237 -134 -37 -98 100zm257 -57l-66 251 127 130 133 -37 98 -100 -47 -178 -246 -67zm194 -231l232 -63 -170 -173 -98 100 36 137zm282 -461l145 40 -39 -148 -106 109zm-50 14l-232 -63 -36 137 98 100 170 -173zm-180 -362l47 -178 -98 -100 -133 -37 -127 130 66 251 246 -67zm-271 74l-62 -237 -170 173 98 100 134 -37zm-451 -288l39 -148 -145 40 106 109zm-135 -101l-133 37 -98 100 47 178 246 67 66 -251 -127 -130zm148 152l-62 237 134 37 98 -100 -170 -173zm1045 1030l39 -148 -145 40 106 109zm-1326 -569l-232 63 170 173 98 -100 -36 -137zm-281 461l-145 -40 39 148 106 -109zm50 -14l232 63 36 -137 -98 -100 -170 173zm1008 -1067l-145 -40 39 148 106 -109zm-1164 561l-39 148 145 -40 -106 -109zm1058 1081l-39 148 145 -40 -106 -109z"/>
 </g>
</svg>
